<svg
    xmlns="http://www.w3.org/2000/svg"
    viewBox="0 0 24 24"
    id="vector">
    <defs>
        <linearGradient id="gradient" x1="0%" y1="0%" x2="100%" y2="100%">
            <stop offset="0%" style="stop-color:#ff682c; stop-opacity:1" />
            <stop offset="100%" style="stop-color:#d82e52; stop-opacity:1" />
        </linearGradient>
    </defs>
    <path
        id="path"
        d="M 20 8 L 20 8 L 14 2.74 C 13.45 2.248 12.738 1.976 12 1.976 C 11.262 1.976 10.55 2.248 10 2.74 L 4 8 C 3.682 8.284 3.429 8.633 3.256 9.022 C 3.084 9.412 2.997 9.834 3 10.26 L 3 19 C 3 19.795 3.316 20.559 3.879 21.121 C 4.441 21.684 5.205 22 6 22 L 18 22 C 18.795 22 19.559 21.684 20.121 21.121 C 20.684 20.559 21 19.795 21 19 L 21 10.25 C 21.002 9.826 20.914 9.406 20.741 9.018 C 20.569 8.63 20.316 8.283 20 8 Z M 14 20 L 10 20 L 10 15 C 10 14.735 10.105 14.48 10.293 14.293 C 10.48 14.105 10.735 14 11 14 L 13 14 C 13.265 14 13.52 14.105 13.707 14.293 C 13.895 14.48 14 14.735 14 15 Z M 19 19 C 19 19.265 18.895 19.52 18.707 19.707 C 18.52 19.895 18.265 20 18 20 L 16 20 L 16 15 C 16 14.205 15.684 13.441 15.121 12.879 C 14.559 12.316 13.795 12 13 12 L 11 12 C 10.205 12 9.441 12.316 8.879 12.879 C 8.316 13.441 8 14.205 8 15 L 8 20 L 6 20 C 5.735 20 5.48 19.895 5.293 19.707 C 5.105 19.52 5 19.265 5 19 L 5 10.25 C 5 10.108 5.031 9.968 5.089 9.838 C 5.148 9.709 5.233 9.594 5.34 9.5 L 11.34 4.25 C 11.522 4.09 11.757 4.001 12 4.001 C 12.243 4.001 12.478 4.09 12.66 4.25 L 18.66 9.5 C 18.767 9.594 18.852 9.709 18.911 9.838 C 18.969 9.968 19 10.108 19 10.25 Z"
        fill="url(#gradient)"/>
</svg>
