<svg
    xmlns="http://www.w3.org/2000/svg"
    viewBox="0 0 24 24"
    id="vector">
    <defs>
        <linearGradient id="gradient" x1="0%" y1="0%" x2="100%" y2="100%">
            <stop offset="0%" style="stop-color:#ff682c; stop-opacity:1" />
            <stop offset="100%" style="stop-color:#d82e52; stop-opacity:1" />
        </linearGradient>
    </defs>
    <path
        id="path"
        d="M 21.32 5.05 L 15.32 3.05 L 15.25 3.05 C 15.203 3.045 15.157 3.045 15.11 3.05 L 14.88 3.05 L 14.75 3.05 L 14.68 3.05 L 9 5 L 3.32 3.05 C 3.17 3 3.01 2.987 2.853 3.012 C 2.697 3.036 2.548 3.097 2.42 3.19 C 2.291 3.282 2.185 3.403 2.112 3.544 C 2.039 3.685 2.001 3.841 2 4 L 2 18 C 1.999 18.21 2.065 18.414 2.187 18.585 C 2.309 18.755 2.481 18.883 2.68 18.95 L 8.68 20.95 L 8.68 20.95 C 8.881 21.016 9.099 21.016 9.3 20.95 L 9.3 20.95 L 15 19.05 L 20.68 21 C 20.786 21.014 20.894 21.014 21 21 C 21.209 21.003 21.413 20.936 21.58 20.81 C 21.709 20.718 21.815 20.597 21.888 20.456 C 21.961 20.315 21.999 20.159 22 20 L 22 6 C 22.001 5.79 21.935 5.586 21.813 5.415 C 21.691 5.245 21.519 5.117 21.32 5.05 Z M 8 18.61 L 4 17.28 L 4 5.39 L 8 6.72 Z M 14 17.28 L 10 18.61 L 10 6.72 L 14 5.39 Z M 20 18.61 L 16 17.28 L 16 5.39 L 20 6.72 Z"
        fill="url(#gradient)"/>
</svg>
