<svg
    xmlns="http://www.w3.org/2000/svg"
    viewBox="0 0 24 24"
    id="vector">
    <path
        id="path"
        d="M 15.71 12.71 C 16.833 11.827 17.604 10.57 17.884 9.169 C 18.164 7.768 17.934 6.312 17.236 5.065 C 16.539 3.818 15.418 2.86 14.077 2.366 C 12.737 1.871 11.263 1.871 9.923 2.366 C 8.582 2.86 7.461 3.818 6.764 5.065 C 6.066 6.312 5.836 7.768 6.116 9.169 C 6.396 10.57 7.167 11.827 8.29 12.71 C 6.61 13.383 5.144 14.499 4.049 15.94 C 2.954 17.38 2.27 19.091 2.07 20.89 C 2.042 21.155 2.12 21.42 2.286 21.627 C 2.453 21.835 2.696 21.968 2.96 21.997 C 3.225 22.026 3.491 21.949 3.698 21.783 C 3.906 21.617 4.04 21.374 4.07 21.11 C 4.29 19.156 5.222 17.349 6.688 16.039 C 8.154 14.728 10.053 14.003 12.02 14.003 C 13.987 14.003 15.886 14.728 17.352 16.039 C 18.818 17.349 19.75 19.156 19.97 21.11 C 19.997 21.356 20.114 21.583 20.299 21.747 C 20.484 21.911 20.723 22.001 20.97 22 L 21.08 22 C 21.342 21.97 21.582 21.837 21.747 21.631 C 21.911 21.425 21.988 21.162 21.96 20.9 C 21.76 19.096 21.072 17.381 19.971 15.938 C 18.87 14.496 17.397 13.379 15.71 12.71 Z M 12 12 C 10.94 12 9.921 11.578 9.172 10.828 C 8.422 10.079 8 9.06 8 8 C 8 6.94 8.422 5.921 9.172 5.172 C 9.921 4.422 10.94 4 12 4 C 13.06 4 14.079 4.422 14.828 5.172 C 15.578 5.921 16 6.94 16 8 C 16 9.06 15.578 10.079 14.828 10.828 C 14.079 11.578 13.06 12 12 12 Z"
        fill="#999999"/>
</svg>
