<svg
    xmlns="http://www.w3.org/2000/svg"
    viewBox="0 0 24 24"
    id="vector">
    <path
        id="path"
        d="M 9 13 L 11 13 L 11 15 C 11 15.265 11.105 15.52 11.293 15.707 C 11.48 15.895 11.735 16 12 16 C 12.265 16 12.52 15.895 12.707 15.707 C 12.895 15.52 13 15.265 13 15 L 13 13 L 15 13 C 15.265 13 15.52 12.895 15.707 12.707 C 15.895 12.52 16 12.265 16 12 C 16 11.735 15.895 11.48 15.707 11.293 C 15.52 11.105 15.265 11 15 11 L 13 11 L 13 9 C 13 8.735 12.895 8.48 12.707 8.293 C 12.52 8.105 12.265 8 12 8 C 11.735 8 11.48 8.105 11.293 8.293 C 11.105 8.48 11 8.735 11 9 L 11 11 L 9 11 C 8.735 11 8.48 11.105 8.293 11.293 C 8.105 11.48 8 11.735 8 12 C 8 12.265 8.105 12.52 8.293 12.707 C 8.48 12.895 8.735 13 9 13 Z M 21 2 L 3 2 C 2.735 2 2.48 2.105 2.293 2.293 C 2.105 2.48 2 2.735 2 3 L 2 21 C 2 21.265 2.105 21.52 2.293 21.707 C 2.48 21.895 2.735 22 3 22 L 21 22 C 21.265 22 21.52 21.895 21.707 21.707 C 21.895 21.52 22 21.265 22 21 L 22 3 C 22 2.735 21.895 2.48 21.707 2.293 C 21.52 2.105 21.265 2 21 2 Z M 20 20 L 4 20 L 4 4 L 20 4 Z"
        fill="#999999"/>
</svg>
